<?xml version="1.0" encoding="UTF-8"?> <svg xmlns="http://www.w3.org/2000/svg" width="1284" height="1220" viewBox="0 0 1284 1220" fill="none"><rect width="1284" height="1220" fill="#EBF4FB"></rect><path d="M993.848 577.753L863.388 642.983L1019.7 721.137L1150.16 655.907L993.848 577.753Z" fill="#1E2227"></path><path fill-rule="evenodd" clip-rule="evenodd" d="M993.848 577.753L863.388 642.983L1019.7 721.137L1150.16 655.907L993.848 577.753ZM993.848 579.682L1146.3 655.907L1019.7 719.208C1019.7 719.208 889.112 653.915 867.247 642.983L993.848 579.682V579.682Z" fill="#181A3D"></path><path fill-rule="evenodd" clip-rule="evenodd" d="M256.118 905.938L133.843 966.551L235.274 1017.27L331.927 968.94L431.106 1018.53L537.191 965.488L662.231 1028.01L859.695 929.275L734.655 866.755L799.755 834.205L599.669 734.162L256.118 905.938Z" fill="#4E84FE" stroke="#181A3D" stroke-width="3.5" stroke-miterlimit="1.5" stroke-linecap="square" stroke-linejoin="bevel"></path><path fill-rule="evenodd" clip-rule="evenodd" d="M204.399 1001.83L235.275 1017.27L331.928 968.937L431.107 1018.53L537.189 965.487L662.229 1028.01L789.444 964.399L734.653 937.004L799.756 904.456L599.67 804.417L256.118 976.187L204.399 1001.83Z" fill="#1A49B2" fill-opacity="0.3"></path><path fill-rule="evenodd" clip-rule="evenodd" d="M859.142 929.553L734.103 867.033V878.148L848.028 935.107L859.142 929.553ZM799.756 834.207L789.683 839.243L600.713 744.758V734.681L799.756 834.207Z" fill="#ACC3FA" stroke="#181A3D" stroke-width="3.5" stroke-miterlimit="1.5" stroke-linecap="square" stroke-linejoin="bevel"></path><path fill-rule="evenodd" clip-rule="evenodd" d="M600.713 734.682L599.67 734.161L256.118 905.939L133.844 966.549L144.959 972.109L600.713 744.234V734.682Z" fill="#181A3D"></path><path fill-rule="evenodd" clip-rule="evenodd" d="M138.29 964.348H789.553L686.135 1016.05H638.323L537.189 965.488L436.056 1016.05H426.157L331.928 968.938L237.699 1016.05H232.851L133.843 966.549L138.29 964.348ZM746.648 860.755H346.476L256.118 905.939L173.471 946.902H824.432L859.692 929.275L734.653 866.756L746.648 860.755Z" fill="#ACC3FA" fill-opacity="0.2"></path><path fill-rule="evenodd" clip-rule="evenodd" d="M574.799 846.565L559.444 851.103L561.612 853.258L556.492 851.97L538.36 849.789V854.786L543.642 859.182L550.543 860.703L557.709 861.467L566.435 860.554L572.112 858.573L576.708 854.967L577.867 852.197L576.339 847.711L574.799 846.565Z" fill="#181A3D"></path><path fill-rule="evenodd" clip-rule="evenodd" d="M574.799 846.565L559.444 851.103L561.612 853.258L556.492 851.97L538.36 849.789V854.786L543.642 859.182L550.543 860.703L557.709 861.467L566.435 860.554L572.112 858.573L576.708 854.967L577.867 852.197L576.339 847.711L574.799 846.565ZM574.462 848.462L574.883 848.772L576.022 852.132L575.291 853.886L571.271 857.032L566.053 858.858L557.715 859.732L550.821 858.994L544.426 857.589L540.088 853.977V851.731L556.175 853.673L561.192 854.935C561.949 855.123 562.732 854.786 563.114 854.106C563.496 853.433 563.38 852.585 562.829 852.035L562.726 851.931L574.462 848.462Z" fill="#181A3D"></path><path fill-rule="evenodd" clip-rule="evenodd" d="M539.963 845.832L539.514 846.184L538.357 848.959L538.989 852.143L544.112 856.58L550.38 858.695L557.706 859.474L566.431 858.564L572.106 856.58L576.704 852.978L577.862 850.203L576.336 845.716L572.106 842.582L565.838 840.467L558.512 839.687L551.849 840.191L550.805 840.513L561.608 851.268L539.963 845.832Z" fill="#9AB25D"></path><path fill-rule="evenodd" clip-rule="evenodd" d="M539.963 845.832L539.514 846.184L538.357 848.959L538.989 852.143L544.112 856.58L550.38 858.695L557.706 859.474L566.431 858.564L572.106 856.58L576.704 852.978L577.862 850.203L576.336 845.716L572.106 842.582L565.838 840.467L558.512 839.687L551.849 840.191L550.805 840.513L561.608 851.268L539.963 845.832ZM554.468 841.724L558.486 841.421L565.467 842.164L571.297 844.131L574.875 846.782L576.017 850.141C576.017 850.141 575.284 851.897 575.284 851.897L571.267 855.044L566.051 856.867L557.708 857.739L550.752 856.998L544.985 855.052L540.566 851.226L540.152 849.139L540.711 847.8L561.188 852.942C561.942 853.131 562.729 852.794 563.111 852.117C563.494 851.441 563.377 850.593 562.826 850.045L554.468 841.724Z" fill="#181A3D"></path><path fill-rule="evenodd" clip-rule="evenodd" d="M568.439 807.342L569.183 807.925L571.103 809.308L571.102 812.527L570.055 817.805L561.561 825.161L551.169 828.667L539.023 829.96L524.559 828.45L515.149 825.161L507.526 819.19L505.607 814.588L508.136 807.15L515.149 801.955L525.54 798.448L537.687 797.155L550.464 795.238L550.464 798.524L532.553 816.354L568.439 807.342Z" fill="#181A3D"></path><path fill-rule="evenodd" clip-rule="evenodd" d="M568.439 807.342L569.183 807.925L571.103 809.308L571.102 812.527L570.055 817.805L561.561 825.161L551.169 828.667L539.023 829.96L524.559 828.45L515.149 825.161L507.526 819.19L505.607 814.588L508.136 807.15L515.149 801.955L525.54 798.448L537.687 797.155L550.464 795.238L550.464 798.524L532.553 816.354L568.439 807.342ZM568.041 809.222L568.175 809.326L569.376 810.192L569.376 812.357L568.478 816.888L560.688 823.634L550.797 826.971L539.021 828.224L524.938 826.754L515.988 823.625L508.946 818.109L507.451 814.526L509.597 808.216L515.958 803.503L525.912 800.144L537.87 798.871C537.894 798.869 537.919 798.866 537.943 798.862L548.738 797.243L548.738 797.807L531.335 815.131C530.785 815.679 530.668 816.527 531.051 817.204C531.433 817.88 532.22 818.218 532.974 818.029L568.041 809.222Z" fill="#181A3D"></path><path fill-rule="evenodd" clip-rule="evenodd" d="M568.439 804.041L569.183 804.623L571.102 809.225L570.055 814.503L561.561 821.859L551.169 825.365L539.023 826.658L524.559 825.148L515.149 821.859L507.526 815.888L505.607 811.287L508.136 803.849L515.149 798.653L525.54 795.146L537.687 793.853L548.734 794.687L550.464 795.222L532.553 813.053L568.439 804.041Z" fill="#9AB25D"></path><path fill-rule="evenodd" clip-rule="evenodd" d="M568.439 804.041L569.183 804.623L571.102 809.225L570.055 814.503L561.561 821.859L551.169 825.365L539.023 826.658L524.559 825.148L515.149 821.859L507.526 815.888L505.607 811.287L508.136 803.849L515.149 798.653L525.54 795.146L537.687 793.853L548.734 794.687L550.464 795.222L532.553 813.053L568.439 804.041ZM546.951 796.284L531.335 811.829C530.785 812.377 530.668 813.226 531.051 813.902C531.433 814.579 532.22 814.916 532.974 814.727L567.872 805.963L569.307 809.404C569.307 809.404 568.478 813.586 568.478 813.586L560.688 820.332L550.797 823.669L539.021 824.923L524.938 823.452L515.988 820.324L508.946 814.807L507.451 811.224L509.597 804.914L515.958 800.201L525.912 796.843L537.713 795.586L546.951 796.284Z" fill="#181A3D"></path><path d="M414.133 760.235L347.437 793.583L391.901 815.814L458.596 782.467L414.133 760.235Z" fill="#4E84FE" stroke="#181A3D" stroke-width="3.5" stroke-miterlimit="1.5" stroke-linecap="square" stroke-linejoin="bevel"></path><path fill-rule="evenodd" clip-rule="evenodd" d="M458.596 782.465L414.132 760.236L413.206 768.107L450.259 786.634L458.596 782.465Z" fill="#ACC3FA" stroke="#181A3D" stroke-width="3.5" stroke-miterlimit="1.5" stroke-linecap="square" stroke-linejoin="bevel"></path><path fill-rule="evenodd" clip-rule="evenodd" d="M413.206 768.107L354.847 797.289L347.437 793.58L414.132 760.236L413.206 768.107Z" fill="#181A3D"></path><path d="M538.176 625.686L458.293 585.744V632.786L538.176 672.728V625.686Z" fill="#181A3D" stroke="#181A3D" stroke-width="3.5" stroke-miterlimit="1.5" stroke-linecap="square" stroke-linejoin="round"></path><path d="M618.059 632.786L538.176 592.845V639.887L618.059 679.828V632.786Z" fill="#181A3D" stroke="#181A3D" stroke-width="3.5" stroke-miterlimit="1.5" stroke-linecap="square" stroke-linejoin="round"></path><path d="M697.941 639.887L618.058 599.945V646.987L697.941 686.929V639.887Z" fill="#181A3D" stroke="#181A3D" stroke-width="3.5" stroke-miterlimit="1.5" stroke-linecap="square" stroke-linejoin="round"></path><path d="M458.293 618.584L378.41 578.643V625.685L458.293 665.626V618.584Z" fill="#AAE1BA" stroke="#181A3D" stroke-width="3.5" stroke-miterlimit="1.5" stroke-linecap="square" stroke-linejoin="round"></path><path d="M458.293 571.543L378.41 531.602V578.644L458.293 618.585V571.543Z" fill="#E4E4E4" stroke="#181A3D" stroke-width="3.5" stroke-miterlimit="1.5" stroke-linecap="square" stroke-linejoin="round"></path><path d="M777.824 646.987L697.941 607.046V654.088L777.824 694.029V646.987Z" fill="#181A3D" stroke="#181A3D" stroke-width="3.5" stroke-miterlimit="1.5" stroke-linecap="square" stroke-linejoin="round"></path><path d="M937.59 660.744L857.707 620.803V667.845L937.59 707.786V660.744Z" fill="#181A3D" stroke="#181A3D" stroke-width="3.5" stroke-miterlimit="1.5" stroke-linecap="square" stroke-linejoin="round"></path><path d="M1017.47 667.401L937.59 627.46V674.502L1017.47 714.444V667.401Z" fill="#181A3D" stroke="#181A3D" stroke-width="3.5" stroke-miterlimit="1.5" stroke-linecap="square" stroke-linejoin="round"></path><path d="M857.707 654.087L777.824 614.146V661.188L857.707 701.129V654.087Z" fill="#181A3D" stroke="#181A3D" stroke-width="3.5" stroke-miterlimit="1.5" stroke-linecap="square" stroke-linejoin="round"></path><path d="M538.174 578.642L458.291 618.583V665.625L538.174 625.684V578.642Z" fill="#AAE1BA" stroke="#181A3D" stroke-width="3.5" stroke-miterlimit="1.5" stroke-linecap="square" stroke-linejoin="round"></path><path d="M857.706 418.877L777.823 458.818V505.86L857.706 465.919V418.877Z" fill="#AAE1BA" stroke="#181A3D" stroke-width="3.5" stroke-miterlimit="1.5" stroke-linecap="square" stroke-linejoin="round"></path><path d="M857.706 465.919L777.823 505.86V552.902L857.706 512.961V465.919Z" fill="#56C175" stroke="#181A3D" stroke-width="3.5" stroke-miterlimit="1.5" stroke-linecap="square" stroke-linejoin="round"></path><path d="M857.706 512.962L777.823 552.904V599.946L857.706 560.005V512.962Z" fill="#FFE2AE" stroke="#181A3D" stroke-width="3.5" stroke-miterlimit="1.5" stroke-linecap="square" stroke-linejoin="round"></path><path d="M857.706 560.002L777.823 599.943V646.985L857.706 607.044V560.002Z" fill="#FFBF4A" stroke="#181A3D" stroke-width="3.5" stroke-miterlimit="1.5" stroke-linecap="square" stroke-linejoin="round"></path><path d="M857.706 607.045L777.823 646.986V694.028L857.706 654.087V607.045Z" fill="#2568FE" stroke="#181A3D" stroke-width="3.5" stroke-miterlimit="1.5" stroke-linecap="square" stroke-linejoin="round"></path><path d="M697.941 498.759L618.058 538.701V585.743L697.941 545.801V498.759Z" fill="#AAE1BA" stroke="#181A3D" stroke-width="3.5" stroke-miterlimit="1.5" stroke-linecap="square" stroke-linejoin="round"></path><path d="M697.941 545.802L618.058 585.743V632.785L697.941 592.844V545.802Z" fill="#FFE2AE" stroke="#181A3D" stroke-width="3.5" stroke-miterlimit="1.5" stroke-linecap="square" stroke-linejoin="round"></path><path d="M697.941 592.845L618.058 632.786V679.828L697.941 639.887V592.845Z" fill="#FFBF4A" stroke="#181A3D" stroke-width="3.5" stroke-miterlimit="1.5" stroke-linecap="square" stroke-linejoin="round"></path><path d="M1017.47 338.994L937.588 378.935V425.977L1017.47 386.036V338.994Z" fill="#56C175" stroke="#181A3D" stroke-width="3.5" stroke-miterlimit="1.5" stroke-linecap="square" stroke-linejoin="round"></path><path d="M1017.47 386.036L937.588 425.978V473.02L1017.47 433.078V386.036Z" fill="#AAE1BA" stroke="#181A3D" stroke-width="3.5" stroke-miterlimit="1.5" stroke-linecap="square" stroke-linejoin="round"></path><path d="M1017.47 433.077L937.588 473.019V520.061L1017.47 480.119V433.077Z" fill="#FFBF4A" stroke="#181A3D" stroke-width="3.5" stroke-miterlimit="1.5" stroke-linecap="square" stroke-linejoin="round"></path><path d="M1017.47 480.12L937.588 520.061V567.103L1017.47 527.162V480.12Z" fill="#FFE2AE" stroke="#181A3D" stroke-width="3.5" stroke-miterlimit="1.5" stroke-linecap="square" stroke-linejoin="round"></path><path d="M1017.47 527.162L937.588 567.104V614.146L1017.47 574.204V527.162Z" fill="#56C175" stroke="#181A3D" stroke-width="3.5" stroke-miterlimit="1.5" stroke-linecap="square" stroke-linejoin="round"></path><path d="M1017.47 574.205L937.588 614.146V661.189L1017.47 621.247V574.205Z" fill="#AAE1BA" stroke="#181A3D" stroke-width="3.5" stroke-miterlimit="1.5" stroke-linecap="square" stroke-linejoin="round"></path><path d="M1017.47 621.247L937.588 661.188V708.231L1017.47 668.289V621.247Z" fill="#2568FE" stroke="#181A3D" stroke-width="3.5" stroke-miterlimit="1.5" stroke-linecap="square" stroke-linejoin="round"></path><path d="M1097.35 628.348L1017.47 668.289V715.331L1097.35 675.39V628.348Z" fill="#2568FE" stroke="#181A3D" stroke-width="3.5" stroke-miterlimit="1.5" stroke-linecap="square" stroke-linejoin="round"></path><path d="M618.056 538.7L538.174 578.642V625.684L618.056 585.742V538.7Z" fill="#56C175" stroke="#181A3D" stroke-width="3.5" stroke-miterlimit="1.5" stroke-linecap="square" stroke-linejoin="round"></path><path d="M618.057 585.743L538.174 625.684V672.726L618.057 632.785V585.743Z" fill="#FFBF4A" stroke="#181A3D" stroke-width="3.5" stroke-miterlimit="1.5" stroke-linecap="square" stroke-linejoin="round"></path><path d="M937.588 378.935L857.705 418.876V465.919L937.588 425.977V378.935Z" fill="#56C175" stroke="#181A3D" stroke-width="3.5" stroke-miterlimit="1.5" stroke-linecap="square" stroke-linejoin="round"></path><path d="M937.588 425.979L857.705 465.92V512.962L937.588 473.021V425.979Z" fill="#AAE1BA" stroke="#181A3D" stroke-width="3.5" stroke-miterlimit="1.5" stroke-linecap="square" stroke-linejoin="round"></path><path d="M937.588 473.018L857.705 512.959V560.002L937.588 520.06V473.018Z" fill="#56C175" stroke="#181A3D" stroke-width="3.5" stroke-miterlimit="1.5" stroke-linecap="square" stroke-linejoin="round"></path><path d="M937.588 520.061L857.705 560.002V607.045L937.588 567.103V520.061Z" fill="#FFE2AE" stroke="#181A3D" stroke-width="3.5" stroke-miterlimit="1.5" stroke-linecap="square" stroke-linejoin="round"></path><path d="M937.588 567.103L857.705 607.044V654.087L937.588 614.145V567.103Z" fill="#FFBF4A" stroke="#181A3D" stroke-width="3.5" stroke-miterlimit="1.5" stroke-linecap="square" stroke-linejoin="round"></path><path d="M937.588 614.146L857.705 654.087V701.129L937.588 661.188V614.146Z" fill="#2568FE" stroke="#181A3D" stroke-width="3.5" stroke-miterlimit="1.5" stroke-linecap="square" stroke-linejoin="round"></path><path d="M777.823 458.818L697.94 498.76V545.802L777.823 505.861V458.818Z" fill="#56C175" stroke="#181A3D" stroke-width="3.5" stroke-miterlimit="1.5" stroke-linecap="square" stroke-linejoin="round"></path><path d="M777.823 505.86L697.94 545.802V592.844L777.823 552.903V505.86Z" fill="#AAE1BA" stroke="#181A3D" stroke-width="3.5" stroke-miterlimit="1.5" stroke-linecap="square" stroke-linejoin="round"></path><path d="M777.823 552.903L697.94 592.845V639.887L777.823 599.945V552.903Z" fill="#FFBF4A" stroke="#181A3D" stroke-width="3.5" stroke-miterlimit="1.5" stroke-linecap="square" stroke-linejoin="round"></path><path d="M1097.35 299.053L1017.47 338.994V386.036L1097.35 346.095V299.053Z" fill="#AAE1BA" stroke="#181A3D" stroke-width="3.5" stroke-miterlimit="1.5" stroke-linecap="square" stroke-linejoin="round"></path><path d="M1097.35 346.094L1017.47 386.035V433.077L1097.35 393.136V346.094Z" fill="#AAE1BA" stroke="#181A3D" stroke-width="3.5" stroke-miterlimit="1.5" stroke-linecap="square" stroke-linejoin="round"></path><path d="M1097.35 393.137L1017.47 433.078V480.12L1097.35 440.179V393.137Z" fill="#56C175" stroke="#181A3D" stroke-width="3.5" stroke-miterlimit="1.5" stroke-linecap="square" stroke-linejoin="round"></path><path d="M1097.35 440.179L1017.47 480.12V527.162L1097.35 487.221V440.179Z" fill="#56C175" stroke="#181A3D" stroke-width="3.5" stroke-miterlimit="1.5" stroke-linecap="square" stroke-linejoin="round"></path><path d="M1097.35 487.221L1017.47 527.162V574.204L1097.35 534.263V487.221Z" fill="#FFBF4A" stroke="#181A3D" stroke-width="3.5" stroke-miterlimit="1.5" stroke-linecap="square" stroke-linejoin="round"></path><path d="M1097.35 534.264L1017.47 574.205V621.247L1097.35 581.306V534.264Z" fill="#56C175" stroke="#181A3D" stroke-width="3.5" stroke-miterlimit="1.5" stroke-linecap="square" stroke-linejoin="round"></path><path d="M1097.35 581.306L1017.47 621.248V668.29L1097.35 628.348V581.306Z" fill="#FFBF4A" stroke="#181A3D" stroke-width="3.5" stroke-miterlimit="1.5" stroke-linecap="square" stroke-linejoin="round"></path><path d="M777.823 599.945L697.94 639.887V686.929L777.823 646.987V599.945Z" fill="#FFE2AE" stroke="#181A3D" stroke-width="3.5" stroke-miterlimit="1.5" stroke-linecap="square" stroke-linejoin="round"></path><path d="M538.176 531.601L458.293 571.542V618.584L538.176 578.643V531.601Z" fill="#D5D5D5"></path><path fill-rule="evenodd" clip-rule="evenodd" d="M539.902 531.601C539.902 531.002 539.592 530.447 539.083 530.133C538.574 529.817 537.939 529.789 537.404 530.056L457.521 569.998C456.936 570.29 456.566 570.888 456.566 571.541V618.584C456.566 619.182 456.877 619.738 457.385 620.052C457.894 620.367 458.53 620.396 459.064 620.128L538.947 580.187C539.533 579.894 539.902 579.296 539.902 578.643V531.601ZM538.176 531.6L458.293 571.542V618.584L538.176 578.643V531.6Z" fill="#181A3D"></path><path d="M857.707 371.834L777.824 411.776V458.818L857.707 418.877V371.834Z" fill="#D5D5D5" stroke="#181A3D" stroke-width="3.5" stroke-miterlimit="1.5" stroke-linecap="square" stroke-linejoin="round"></path><path d="M697.941 451.718L618.058 491.659V538.701L697.941 498.76V451.718Z" fill="#D5D5D5" stroke="#181A3D" stroke-width="3.5" stroke-miterlimit="1.5" stroke-linecap="square" stroke-linejoin="round"></path><path d="M1017.47 291.952L937.59 331.894V378.936L1017.47 338.994V291.952Z" fill="#D5D5D5" stroke="#181A3D" stroke-width="3.5" stroke-miterlimit="1.5" stroke-linecap="square" stroke-linejoin="round"></path><path d="M618.059 491.659L538.176 531.601V578.643L618.059 538.701V491.659Z" fill="#B7BBC0" stroke="#181A3D" stroke-width="3.5" stroke-miterlimit="1.5" stroke-linecap="square" stroke-linejoin="round"></path><path d="M937.59 331.894L857.707 371.835V418.877L937.59 378.936V331.894Z" fill="#B7BBC0" stroke="#181A3D" stroke-width="3.5" stroke-miterlimit="1.5" stroke-linecap="square" stroke-linejoin="round"></path><path d="M777.824 411.776L697.941 451.718V498.76L777.824 458.819V411.776Z" fill="#B7BBC0" stroke="#181A3D" stroke-width="3.5" stroke-miterlimit="1.5" stroke-linecap="square" stroke-linejoin="round"></path><path d="M1097.36 252.01L1017.47 291.951V338.993L1097.36 299.052V252.01Z" fill="#B7BBC0" stroke="#181A3D" stroke-width="3.5" stroke-miterlimit="1.5" stroke-linecap="square" stroke-linejoin="round"></path><path d="M1137.3 608.266L1097.36 628.237V675.279L1137.3 655.308V608.266Z" fill="#D5D5D5"></path><path fill-rule="evenodd" clip-rule="evenodd" d="M1139.02 608.267C1139.02 607.668 1138.71 607.112 1138.21 606.798C1137.7 606.483 1137.06 606.455 1136.53 606.722L1096.58 626.693C1096 626.985 1095.63 627.583 1095.63 628.236V675.278C1095.63 675.877 1095.94 676.433 1096.45 676.747C1096.96 677.062 1097.59 677.091 1098.13 676.823L1138.07 656.852C1138.65 656.56 1139.02 655.962 1139.02 655.309V608.267ZM1137.3 608.266L1097.36 628.237V675.279L1137.3 655.308V608.266Z" fill="#181A3D"></path><path d="M1137.51 278.865L1097.57 298.835V345.878L1137.51 325.907V278.865Z" fill="#B7BBC0"></path><path fill-rule="evenodd" clip-rule="evenodd" d="M1139.24 278.865C1139.24 278.267 1138.93 277.71 1138.42 277.396C1137.91 277.081 1137.27 277.053 1136.74 277.32L1096.8 297.291C1096.21 297.583 1095.84 298.181 1095.84 298.834V345.877C1095.84 346.475 1096.15 347.031 1096.66 347.345C1097.17 347.66 1097.81 347.689 1098.34 347.421L1138.28 327.45C1138.87 327.158 1139.24 326.561 1139.24 325.907V278.865ZM1137.51 278.864L1097.57 298.835V345.877L1137.51 325.906V278.864Z" fill="#181A3D"></path><path d="M1137.51 231.822L1097.57 251.793V298.835L1137.51 278.864V231.822Z" fill="#D5D5D5" stroke="#181A3D" stroke-width="3.5" stroke-miterlimit="1.5" stroke-linecap="square" stroke-linejoin="round"></path><path d="M1137.3 326.013L1097.36 345.984V393.026L1137.3 373.055V326.013Z" fill="#D5D5D5"></path><path fill-rule="evenodd" clip-rule="evenodd" d="M1139.02 326.013C1139.02 325.415 1138.71 324.859 1138.21 324.545C1137.7 324.23 1137.06 324.201 1136.53 324.469L1096.58 344.439C1096 344.732 1095.63 345.329 1095.63 345.983V393.025C1095.63 393.623 1095.94 394.18 1096.45 394.494C1096.96 394.809 1097.59 394.837 1098.13 394.57L1138.07 374.599C1138.65 374.307 1139.02 373.709 1139.02 373.056V326.013ZM1137.3 326.013L1097.36 345.983V393.026L1137.3 373.055V326.013Z" fill="#181A3D"></path><path d="M1137.3 373.055L1097.36 393.026V440.068L1137.3 420.097V373.055Z" fill="#B7BBC0"></path><path fill-rule="evenodd" clip-rule="evenodd" d="M1139.02 373.055C1139.02 372.457 1138.71 371.901 1138.21 371.587C1137.7 371.272 1137.06 371.243 1136.53 371.511L1096.58 391.481C1096 391.774 1095.63 392.371 1095.63 393.025V440.067C1095.63 440.665 1095.94 441.222 1096.45 441.536C1096.96 441.851 1097.59 441.879 1098.13 441.612L1138.07 421.641C1138.65 421.349 1139.02 420.751 1139.02 420.098V373.055ZM1137.3 373.055L1097.36 393.025V440.068L1137.3 420.097V373.055Z" fill="#181A3D"></path><path d="M1137.3 420.098L1097.36 440.068V487.111L1137.3 467.14V420.098Z" fill="#D5D5D5"></path><path fill-rule="evenodd" clip-rule="evenodd" d="M1139.02 420.098C1139.02 419.499 1138.71 418.943 1138.21 418.629C1137.7 418.314 1137.06 418.286 1136.53 418.553L1096.58 438.524C1096 438.816 1095.63 439.414 1095.63 440.067V487.109C1095.63 487.708 1095.94 488.264 1096.45 488.578C1096.96 488.893 1097.59 488.922 1098.13 488.654L1138.07 468.683C1138.65 468.391 1139.02 467.793 1139.02 467.14V420.098ZM1137.3 420.097L1097.36 440.068V487.11L1137.3 467.139V420.097Z" fill="#181A3D"></path><path d="M1137.3 467.139L1097.36 487.11V534.152L1137.3 514.181V467.139Z" fill="#B7BBC0"></path><path fill-rule="evenodd" clip-rule="evenodd" d="M1139.02 467.14C1139.02 466.541 1138.71 465.985 1138.21 465.671C1137.7 465.356 1137.06 465.328 1136.53 465.595L1096.58 485.566C1096 485.858 1095.63 486.456 1095.63 487.109V534.151C1095.63 534.75 1095.94 535.306 1096.45 535.62C1096.96 535.935 1097.59 535.964 1098.13 535.696L1138.07 515.725C1138.65 515.433 1139.02 514.835 1139.02 514.182V467.14ZM1137.3 467.139L1097.36 487.11V534.152L1137.3 514.181V467.139Z" fill="#181A3D"></path><path d="M1137.3 514.182L1097.36 534.152V581.195L1137.3 561.224V514.182Z" fill="#D5D5D5"></path><path fill-rule="evenodd" clip-rule="evenodd" d="M1139.02 514.182C1139.02 513.583 1138.71 513.027 1138.21 512.713C1137.7 512.398 1137.06 512.37 1136.53 512.637L1096.58 532.608C1096 532.9 1095.63 533.498 1095.63 534.151V581.193C1095.63 581.792 1095.94 582.348 1096.45 582.662C1096.96 582.977 1097.59 583.006 1098.13 582.738L1138.07 562.767C1138.65 562.475 1139.02 561.877 1139.02 561.224V514.182ZM1137.3 514.181L1097.36 534.152V581.194L1137.3 561.223V514.181Z" fill="#181A3D"></path><path d="M1137.3 561.223L1097.36 581.194V628.236L1137.3 608.265V561.223Z" fill="#B7BBC0"></path><path fill-rule="evenodd" clip-rule="evenodd" d="M1139.02 561.224C1139.02 560.625 1138.71 560.069 1138.21 559.755C1137.7 559.44 1137.06 559.412 1136.53 559.679L1096.58 579.65C1096 579.942 1095.63 580.54 1095.63 581.193V628.235C1095.63 628.834 1095.94 629.39 1096.45 629.704C1096.96 630.019 1097.59 630.048 1098.13 629.78L1138.07 609.809C1138.65 609.517 1139.02 608.919 1139.02 608.266V561.224ZM1137.3 561.223L1097.36 581.194V628.236L1137.3 608.265V561.223Z" fill="#181A3D"></path><path d="M378.41 531.601L458.293 571.542L1137.51 231.934L1057.63 191.992L378.41 531.601Z" fill="#B7BBC0" stroke="#181A3D" stroke-width="3.5" stroke-miterlimit="1.5" stroke-linecap="square" stroke-linejoin="round"></path><path fill-rule="evenodd" clip-rule="evenodd" d="M538.149 531.615L458.293 571.543L378.41 531.601L458.266 491.673L538.149 531.615ZM698.748 451.315L618.005 491.687L538.123 451.745L618.866 411.373L698.748 451.315ZM777.652 331.98L697.887 371.864L777.768 411.805L857.533 371.922L777.652 331.98ZM857.546 292.033L938.159 251.726L1018.04 291.667L937.428 331.975L857.546 292.033ZM1017.68 211.963L1097.57 251.904L1137.51 231.933L1057.63 191.992L1017.68 211.963Z" fill="#C6C8CA" stroke="#181A3D" stroke-width="3.5" stroke-miterlimit="1.5" stroke-linecap="square" stroke-linejoin="bevel"></path><path fill-rule="evenodd" clip-rule="evenodd" d="M415.317 513.862L428.058 510.151L444.118 509.648L459.561 511.937L478.74 518.69L491.64 527.643L496.177 534.13L496.943 541.234L488.396 550.402L475.655 554.112L459.595 554.616L439.201 551.047L424.974 545.573L412.073 536.621L407.536 530.134L407.896 520.232L415.317 513.862Z" fill="#181A3D"></path><path fill-rule="evenodd" clip-rule="evenodd" d="M446.382 369.249L476.504 390.158L502.003 419.454L518.234 449.576L526.709 489.739L519.233 519.862L506.627 532.807L492.261 541.988L446.382 529.903L416.259 508.994L390.761 479.698L370.956 439.534L366.055 409.413L371.768 375.525L386.137 366.345L416.259 360.036L446.382 369.249Z" fill="#BC8732"></path><path fill-rule="evenodd" clip-rule="evenodd" d="M446.382 369.249L476.504 390.158L502.003 419.454L518.234 449.576L526.709 489.739L519.233 519.862L506.627 532.807L492.261 541.988L446.382 529.903L416.259 508.994L390.761 479.698L370.956 439.534L366.055 409.413L371.768 375.525L386.137 366.345L416.259 360.036L446.382 369.249ZM445.619 370.821L475.343 391.454L500.573 420.442L516.596 450.175L524.938 489.709L517.671 518.993L505.53 531.46L491.968 540.125L447.116 528.311L417.42 507.698L392.21 478.734L372.619 439.003L367.805 409.418L373.344 376.567L386.8 367.969L416.179 361.817L445.619 370.821Z" fill="#181A3D"></path><path fill-rule="evenodd" clip-rule="evenodd" d="M446.382 369.249L476.504 390.158L502.003 419.454L518.234 449.576L526.709 489.739L519.233 519.862L506.627 532.807L492.261 541.988L446.382 529.903L416.259 508.994L390.761 479.698L370.956 439.534L366.055 409.413L371.768 375.525L386.137 366.345L416.259 360.036L446.382 369.249Z" fill="#BC8732"></path><path fill-rule="evenodd" clip-rule="evenodd" d="M446.382 369.249L476.504 390.158L502.003 419.454L518.234 449.576L526.709 489.739L519.233 519.862L506.627 532.807L492.261 541.988L446.382 529.903L416.259 508.994L390.761 479.698L370.956 439.534L366.055 409.413L371.768 375.525L386.137 366.345L416.259 360.036L446.382 369.249ZM445.619 370.821L475.343 391.454L500.573 420.442L516.596 450.175L524.938 489.709L517.671 518.993L505.53 531.46L491.968 540.125L447.116 528.311L417.42 507.698L392.21 478.734L372.619 439.003L367.805 409.418L373.344 376.567L386.8 367.969L416.179 361.817L445.619 370.821Z" fill="#181A3D"></path><path fill-rule="evenodd" clip-rule="evenodd" d="M518.741 451.978L526.709 489.739L519.233 519.862L506.629 532.808L492.258 541.988L464.818 534.758V483.112L518.741 451.978Z" fill="#181A3D"></path><path fill-rule="evenodd" clip-rule="evenodd" d="M520.43 451.621C520.314 451.08 519.951 450.626 519.446 450.401C518.941 450.176 518.359 450.206 517.88 450.483L463.95 481.616C463.419 481.925 463.089 482.495 463.089 483.111V534.758C463.089 535.542 463.62 536.228 464.377 536.427L491.818 543.657C492.284 543.78 492.782 543.701 493.19 543.442L507.555 534.262C507.665 534.191 507.768 534.106 507.865 534.011L520.469 521.066C520.683 520.846 520.838 520.574 520.909 520.277L528.386 490.155C528.444 489.902 528.451 489.638 528.399 489.383L520.43 451.621ZM518.741 451.977L526.709 489.739L519.233 519.861L506.629 532.807L492.258 541.987L464.817 534.758V483.111L518.741 451.977Z" fill="#181A3D"></path><path fill-rule="evenodd" clip-rule="evenodd" d="M432.014 378.43L462.136 399.339L487.635 428.635L503.866 458.757L512.34 498.921L504.865 529.043L492.259 541.988L472.177 548.406L432.014 539.084L401.891 518.175L376.392 488.88L356.588 448.716L351.687 418.594L359.162 388.471L371.769 375.526L401.891 369.217L432.014 378.43Z" fill="#FCB747"></path><path fill-rule="evenodd" clip-rule="evenodd" d="M432.014 378.43L462.136 399.339L487.635 428.635L503.866 458.757L512.34 498.921L504.865 529.043L492.259 541.988L472.177 548.406L432.014 539.084L401.891 518.175L376.392 488.88L356.588 448.716L351.687 418.594L359.162 388.471L371.769 375.526L401.891 369.217L432.014 378.43ZM431.251 380.002L460.975 400.635L486.205 429.623L502.228 459.357L510.569 498.89L503.302 528.174L491.322 540.476L472.104 546.616L432.727 537.477L403.052 516.879L377.842 487.915L358.251 448.184L353.448 418.666L360.725 389.34L372.638 377.107L401.811 370.998L431.251 380.002Z" fill="#181A3D"></path><path fill-rule="evenodd" clip-rule="evenodd" d="M420.384 437.78L432.828 444L453.6 454.39V441.947L432.828 431.561V418.962L420.384 412.743V425.336L412.052 421.166L399.608 414.946V449.556L441.16 470.328V480.06L432.828 475.889L420.384 469.665L399.608 459.274V471.718L420.384 482.104V493.14L432.828 499.364V488.328L453.6 498.719V464.113L412.052 443.332V433.61L420.384 437.78Z" fill="#FFE2AE" stroke="#181A3D" stroke-width="3.5" stroke-miterlimit="2" stroke-linejoin="round"></path></svg> 